<svg xmlns="http://www.w3.org/2000/svg" version="1.1" viewBox="388.8 293.76000000000005 302.40000000000003 492.48" style="max-height: 500px" width="302.40000000000003" height="492.48">
<path transform="translate(0,0)" fill="none" d="M0 0 C356.4 0 712.8 0 1080 0 C1080 356.4 1080 712.8 1080 1080 C723.6 1080 367.2 1080 0 1080 C0 723.6 0 367.2 0 0 Z"/>
<path transform="translate(547.8125,298.1875)" fill="#F7EDC8" d="M0 0 C5.23042905 2.97416554 8.54047782 6.96199681 11.625 12.0625 C11.95226074 12.60350342 12.27952148 13.14450684 12.61669922 13.7019043 C16.78064074 20.67319645 20.68382802 27.79813543 24.63061523 34.89355469 C28.73011171 42.25215358 32.92068074 49.54979064 37.1875 56.8125 C42.55972245 65.96148034 47.7782687 75.1865375 52.9375 84.45703125 C56.93714452 91.62603695 61.03098044 98.73342763 65.1875 105.8125 C70.55946793 114.96163289 75.77826525 124.18653131 80.9375 133.45703125 C84.93714452 140.62603695 89.03098044 147.73342763 93.1875 154.8125 C97.95179581 162.9266913 102.61161392 171.09059387 107.1875 179.3125 C113.48384419 190.62140779 119.97427917 201.80862732 126.52246094 212.97314453 C129.1886329 217.5197105 131.84815396 222.07006444 134.5 226.625 C134.96237061 227.41374512 135.42474121 228.20249023 135.90112305 229.01513672 C136.32176025 229.73846191 136.74239746 230.46178711 137.17578125 231.20703125 C137.54227783 231.83456299 137.90877441 232.46209473 138.28637695 233.10864258 C140.46035052 237.21922548 140.87075298 241.27204842 140.1875 245.8125 C137.1990628 253.19038088 132.7997229 260.04480219 128.75 266.875 C123.79309351 275.29911832 118.93759658 283.77010111 114.1875 292.3125 C109.05154503 301.54200981 103.78536988 310.68487786 98.4375 319.79296875 C94.26506041 326.9177819 90.20254756 334.09796141 86.1875 341.3125 C81.05118611 350.54181402 75.78537465 359.68486973 70.4375 368.79296875 C66.26506041 375.9177819 62.20254756 383.09796141 58.1875 390.3125 C53.05118611 399.54181402 47.78537465 408.68486973 42.4375 417.79296875 C38.26504745 424.91780401 34.20346665 432.09845738 30.1875 439.3125 C25.38203996 447.92394948 20.5463013 456.51662124 15.625 465.0625 C15.05330078 466.06861328 14.48160156 467.07472656 13.89257812 468.11132812 C9.36357823 475.92828524 5.01769744 481.80003192 -3.8125 484.8125 C-8.88847124 485.88450115 -13.08583668 485.08664552 -17.75 482.875 C-24.42415695 478.40852743 -27.61194933 471.4730402 -31.3046875 464.58740234 C-33.92221463 459.77023696 -36.68012682 455.03319102 -39.41424561 450.28155518 C-41.15068702 447.25829311 -42.87584563 444.22861115 -44.6015625 441.19921875 C-48.3356658 434.64715414 -52.07598239 428.09865908 -55.81854248 421.55142212 C-57.48348602 418.63861439 -59.14796898 415.72554348 -60.8125 412.8125 C-61.47916448 411.64583208 -62.14583114 410.47916541 -62.8125 409.3125 C-88.8125 363.8125 -88.8125 363.8125 -114.8125 318.3125 C-115.14244965 317.73509064 -115.47239929 317.15768127 -115.81234741 316.56277466 C-116.47953147 315.39519747 -117.14670675 314.22761527 -117.81387329 313.06002808 C-119.4725523 310.15725132 -121.13141327 307.25457892 -122.79052734 304.35205078 C-125.88574529 298.93675318 -128.97965729 293.52072797 -132.06842041 288.10174561 C-133.51070701 285.57157752 -134.95381077 283.04187595 -136.39697266 280.51220703 C-137.40215924 278.74947486 -138.40617908 276.98607753 -139.41015625 275.22265625 C-142.72133389 269.41949046 -146.07537084 263.64886111 -149.53344727 257.93188477 C-157.12529413 245.35222785 -157.12529413 245.35222785 -155.8125 237.8125 C-154.70336914 235.4128418 -154.70336914 235.4128418 -153.22265625 232.82421875 C-152.67617432 231.85597168 -152.12969238 230.88772461 -151.56665039 229.89013672 C-150.69834595 228.36670654 -150.69834595 228.36670654 -149.8125 226.8125 C-148.68486264 224.76837977 -147.55991448 222.72277399 -146.4375 220.67578125 C-139.76913502 208.60939089 -133.00042882 196.61957794 -126.01367188 184.73364258 C-121.85465763 177.64308469 -117.80944311 170.49552526 -113.8125 163.3125 C-108.67624835 154.08315229 -103.41037376 144.94012875 -98.0625 135.83203125 C-93.89006041 128.7072181 -89.82754756 121.52703859 -85.8125 114.3125 C-80.67618611 105.08318598 -75.41037465 95.94013027 -70.0625 86.83203125 C-65.89005971 79.70721691 -61.82759629 72.52701235 -57.8125 65.3125 C-52.65706943 56.05015219 -47.39263159 46.86050149 -42.00537109 37.73095703 C-39.02482999 32.66613318 -36.11871196 27.57641537 -33.32421875 22.40625 C-32.75517822 21.36355957 -32.1861377 20.32086914 -31.59985352 19.24658203 C-30.52650385 17.27139165 -29.467306 15.28841436 -28.42553711 13.29638672 C-22.09088499 1.6969627 -13.18511048 -4.10683769 0 0 Z"/>
<path transform="translate(547.8125,298.1875)" fill="#000000" d="M0 0 C5.23042905 2.97416554 8.54047782 6.96199681 11.625 12.0625 C11.95226074 12.60350342 12.27952148 13.14450684 12.61669922 13.7019043 C16.78064074 20.67319645 20.68382802 27.79813543 24.63061523 34.89355469 C28.73011171 42.25215358 32.92068074 49.54979064 37.1875 56.8125 C42.55972245 65.96148034 47.7782687 75.1865375 52.9375 84.45703125 C56.93714452 91.62603695 61.03098044 98.73342763 65.1875 105.8125 C70.55946793 114.96163289 75.77826525 124.18653131 80.9375 133.45703125 C84.93714452 140.62603695 89.03098044 147.73342763 93.1875 154.8125 C97.95179581 162.9266913 102.61161392 171.09059387 107.1875 179.3125 C113.48384419 190.62140779 119.97427917 201.80862732 126.52246094 212.97314453 C129.1886329 217.5197105 131.84815396 222.07006444 134.5 226.625 C134.96237061 227.41374512 135.42474121 228.20249023 135.90112305 229.01513672 C136.32176025 229.73846191 136.74239746 230.46178711 137.17578125 231.20703125 C137.54227783 231.83456299 137.90877441 232.46209473 138.28637695 233.10864258 C140.46198732 237.22232038 140.86690568 241.27040582 140.1875 245.8125 C137.70772038 252.67562451 134.68073864 257.13276828 128.37402344 260.89404297 C125.69470796 262.01949907 123.66698118 262.04004979 120.765625 262.0078125 C119.74082031 262.00136719 118.71601562 261.99492188 117.66015625 261.98828125 C116.59667969 261.97152344 115.53320312 261.95476562 114.4375 261.9375 C113.35855469 261.92847656 112.27960938 261.91945313 111.16796875 261.91015625 C108.50758722 261.88661305 105.84765664 261.85372799 103.1875 261.8125 C102.725215 260.70023544 102.26292999 259.58797089 101.78663635 258.44200134 C98.82523398 252.55529768 94.24630127 248.32846777 89.60131836 243.74047852 C88.6195426 242.75655346 87.63863422 241.7717623 86.65852356 240.78617859 C84.01069298 238.1287083 81.35062323 235.48381708 78.68780971 232.84137082 C75.89859539 230.0697965 73.12000343 227.28760924 70.33998108 224.50682068 C65.6754234 219.84413173 61.00320916 215.18923009 56.32592773 210.53930664 C50.91712021 205.16201908 45.51890728 199.77427961 40.12657064 194.38047844 C34.3806812 188.63323925 28.62721068 182.89363613 22.87146688 177.15626788 C21.21393171 175.50299656 19.55782358 173.84830706 17.90202141 172.19330025 C15.3039712 169.59725627 12.70089023 167.00636318 10.09379387 164.41940498 C8.68005231 163.01430631 7.2711884 161.60430536 5.86245728 160.19418335 C4.60281914 158.94734016 4.60281914 158.94734016 3.31773376 157.67530823 C2.58826003 156.94918618 1.8587863 156.22306414 1.1072073 155.47493839 C-2.11851776 152.68150776 -5.37276778 152.52388193 -9.5 152.3125 C-10.49386719 152.2403125 -11.48773437 152.168125 -12.51171875 152.09375 C-20.60332836 153.85570996 -27.39465343 163.2212872 -33.1184082 168.89379883 C-34.01208603 169.77608658 -34.90576385 170.65837433 -35.82652283 171.56739807 C-38.75872707 174.46481318 -41.68698287 177.36615426 -44.61328125 180.26953125 C-45.11356079 180.76586492 -45.61384033 181.2621986 -46.12927985 181.77357268 C-50.85618826 186.46412031 -55.58061422 191.15715853 -60.30004597 195.85522938 C-66.30726115 201.83483491 -72.32584253 207.80248541 -78.36009723 213.75480634 C-82.6205261 217.95935046 -86.86737714 222.17731281 -91.10456532 226.40527552 C-93.62834857 228.92282457 -96.1576266 231.43418289 -98.70180702 233.93113136 C-101.53851811 236.71580759 -104.3469142 239.52803069 -107.15356445 242.34301758 C-108.40893509 243.56299438 -108.40893509 243.56299438 -109.68966675 244.80761719 C-114.86525704 250.05792389 -117.43285024 254.54009188 -118.8125 261.8125 C-122.47900572 261.95279474 -126.14411329 262.04699664 -129.8125 262.125 C-130.84246094 262.16689453 -131.87242187 262.20878906 -132.93359375 262.25195312 C-139.91705931 262.36315481 -144.42669479 261.37231318 -149.8125 256.8125 C-154.13229034 252.37903097 -155.49052168 248.18709008 -156.3125 242.125 C-156.2115884 238.42693768 -155.03846955 236.03006214 -153.21875 232.8359375 C-152.67283203 231.86599854 -152.12691406 230.89605957 -151.56445312 229.89672852 C-150.98630859 228.87893311 -150.40816406 227.8611377 -149.8125 226.8125 C-148.68519734 224.76819516 -147.56024213 222.7225943 -146.4375 220.67578125 C-139.76913502 208.60939089 -133.00042882 196.61957794 -126.01367188 184.73364258 C-121.85465763 177.64308469 -117.80944311 170.49552526 -113.8125 163.3125 C-108.67624835 154.08315229 -103.41037376 144.94012875 -98.0625 135.83203125 C-93.89006041 128.7072181 -89.82754756 121.52703859 -85.8125 114.3125 C-80.67618611 105.08318598 -75.41037465 95.94013027 -70.0625 86.83203125 C-65.89005971 79.70721691 -61.82759629 72.52701235 -57.8125 65.3125 C-52.65706943 56.05015219 -47.39263159 46.86050149 -42.00537109 37.73095703 C-39.02482999 32.66613318 -36.11871196 27.57641537 -33.32421875 22.40625 C-32.75517822 21.36355957 -32.1861377 20.32086914 -31.59985352 19.24658203 C-30.52650385 17.27139165 -29.467306 15.28841436 -28.42553711 13.29638672 C-22.09088499 1.6969627 -13.18511048 -4.10683769 0 0 Z"/>
<path transform="translate(429,561)" fill="#FCF9ED" d="M0 0 C24.09 0 48.18 0 73 0 C74.32 4.62 75.64 9.24 77 14 C83.00569473 24.00949122 90.47868736 30.99017957 102 34 C111.33446982 35.00916241 120.9130513 35.2068885 129 30 C129.75410156 29.5875 130.50820313 29.175 131.28515625 28.75 C142.78722545 21.99085416 145.31821996 12.88623015 149 0 C173.09 0 197.18 0 222 0 C220.4878832 10.58481757 215.34919208 14.94672147 208.01220703 22.26245117 C206.65053406 23.63179054 206.65053406 23.63179054 205.26135254 25.02879333 C202.7825459 27.52093528 200.29742959 30.00669128 197.81067896 32.49090362 C195.73133557 34.56917401 193.65498371 36.6504207 191.57857025 38.73161775 C186.67923075 43.64203258 181.77460663 48.54712447 176.86669922 53.44897461 C171.81037575 58.4992534 166.76331063 63.55865151 161.72066224 68.62258166 C157.38284069 72.97803308 153.03921904 77.32764019 148.69094741 81.67265874 C146.09743356 84.2643625 143.50617769 86.85822495 140.92053604 89.45778465 C138.03764223 92.35561638 135.14274973 95.24116693 132.24658203 98.12573242 C131.39546844 98.98448975 130.54435486 99.84324707 129.66744995 100.72802734 C124.42106061 105.92803413 119.78907876 110.4250175 112 110.4375 C111.195625 110.45683594 110.39125 110.47617187 109.5625 110.49609375 C102.01961006 109.03580865 96.4408864 101.74346295 91.26269531 96.5690918 C90.29008515 95.60411228 89.31707729 94.63953346 88.34370422 93.67532349 C85.7130171 91.06649021 83.08884759 88.45119764 80.46651936 85.83396506 C78.82621515 84.19731315 77.18462245 82.56196481 75.54259491 80.92704201 C69.80963458 75.21853781 64.08238319 69.50436981 58.35986328 63.78540039 C53.03204918 58.46122565 47.69123146 53.15034191 42.34436536 47.84530705 C37.74683046 43.28248055 33.15897967 38.71006526 28.57841754 34.13020068 C25.84564322 31.39821854 23.10905547 28.67034342 20.3624649 25.95224571 C17.78058714 23.39656011 15.21098039 20.82914047 12.65019798 18.25232315 C11.2634377 16.86288727 9.86432866 15.48581052 8.46485901 14.10917664 C7.63777939 13.27233337 6.81069977 12.43549011 5.95855713 11.57328796 C4.87792181 10.49566964 4.87792181 10.49566964 3.77545547 9.39628124 C2 7 2 7 0 0 Z"/>
<path transform="translate(537.8125,449.75)" fill="#AFAFAF" d="M0 0 C1.03769531 -0.02578125 2.07539062 -0.0515625 3.14453125 -0.078125 C8.50898149 0.50032663 11.84896225 3.66101611 15.57170105 7.36004639 C16.41709946 8.19546967 17.26249786 9.03089294 18.1335144 9.89163208 C19.50444748 11.26156815 19.50444748 11.26156815 20.90307617 12.65917969 C21.88538915 13.63386555 22.86810131 14.60814926 23.85118103 15.58206177 C26.51293745 18.22192557 29.16814064 20.86828495 31.8215158 23.51657009 C33.48074136 25.17214701 35.1412564 26.82641946 36.80220985 28.48026276 C42.6000124 34.2535926 48.39209111 40.03260156 54.17944336 45.81640625 C59.56915102 51.20247653 64.97185558 56.57526547 70.38062686 61.94218516 C75.02909684 66.55594614 79.66788264 71.17929701 84.29937917 75.81009603 C87.06346691 78.57339142 89.8313737 81.33257755 92.60927391 84.0819931 C95.22150615 86.6680332 97.82147051 89.26581046 100.41260719 91.87298203 C101.81607546 93.27912627 103.23189376 94.6729102 104.64807129 96.06625366 C105.48501022 96.91295624 106.32194916 97.75965881 107.18424988 98.63201904 C107.91334659 99.35910442 108.64244329 100.0861898 109.39363384 100.83530807 C111.1875 103.25 111.1875 103.25 113.1875 110.25 C89.0975 110.25 65.0075 110.25 40.1875 110.25 C39.8575 106.62 39.5275 102.99 39.1875 99.25 C35.8672255 87.55628423 30.11832704 81.12448532 20.06640625 74.73046875 C11.076258 70.10731246 0.02101063 69.83307785 -9.7890625 71.8671875 C-20.41331021 75.67842557 -27.96348848 83.22870953 -32.8125 93.25 C-35.42096537 99.08799392 -35.1809851 103.30333615 -35.8125 110.25 C-59.9025 110.25 -83.9925 110.25 -108.8125 110.25 C-107.68740906 101.24927251 -107.68740906 101.24927251 -104.83125305 98.33934021 C-104.19657419 97.67646437 -103.56189533 97.01358852 -102.90798378 96.33062553 C-102.21647413 95.64401911 -101.52496449 94.95741268 -100.8125 94.25 C-100.11229422 93.52743578 -99.41208843 92.80487156 -98.69066429 92.06041145 C-96.31871585 89.62566264 -93.91889188 87.22120733 -91.51245117 84.82055664 C-90.60755951 83.91391266 -89.70266785 83.00726868 -88.77035522 82.07315063 C-86.31228902 79.61056607 -83.8511196 77.15110593 -81.38919997 74.69237447 C-78.8061638 72.11188642 -76.22558676 69.52894095 -73.64460754 66.94639587 C-69.31833325 62.61830897 -64.98996925 58.29232033 -60.66040039 53.9675293 C-55.65341551 48.96600596 -50.650071 43.96086256 -45.64856166 38.95386416 C-41.34622939 34.64699942 -37.04195853 30.34207939 -32.73604947 26.03879064 C-30.16740355 23.4717041 -27.59943911 20.90394564 -25.03322411 18.33442879 C-22.18019317 15.47798234 -19.32310785 12.62562562 -16.46557617 9.77368164 C-15.61414536 8.92022659 -14.76271454 8.06677155 -13.88548279 7.18745422 C-12.72275848 6.02895966 -12.72275848 6.02895966 -11.5365448 4.84706116 C-10.86166614 4.17255952 -10.18678747 3.49805788 -9.49145794 2.8031168 C-6.42766214 -0.03104159 -4.08174208 0.06039569 0 0 Z"/>
<path transform="translate(557,523)" fill="#EDD57B" d="M0 0 C9.46315 5.80602292 16.42201098 12.49356951 20.30859375 23.03125 C22.78284999 33.65517509 21.8681728 45.33969287 16.37109375 54.8046875 C10.33401799 63.80541864 2.51845498 70.10992248 -8 73 C-10.97290807 73.41197352 -13.87662781 73.47860879 -16.875 73.4375 C-17.66583984 73.42847656 -18.45667969 73.41945313 -19.27148438 73.41015625 C-30.26403188 73.0849864 -38.24462656 68.79434517 -46 61 C-54.3053295 50.31513987 -56.51312473 39.26464669 -55 26 C-51.98612947 13.97142743 -44.9996141 6.84446163 -34.74609375 0.4453125 C-25.06083584 -4.65219166 -9.85658961 -5.44754213 0 0 Z"/>
</svg>